<?xml version="1.0" encoding="UTF-8"?>
<svg xmlns="http://www.w3.org/2000/svg" xmlns:xlink="http://www.w3.org/1999/xlink" width="40px" height="40px" viewBox="0 0 40 40" version="1.1">
<g id="surface1">
<path style="fill-rule:nonzero;fill:rgb(100%,40%,0%);fill-opacity:1;stroke-width:30;stroke-linecap:butt;stroke-linejoin:miter;stroke:rgb(0%,0%,0%);stroke-opacity:1;stroke-miterlimit:4;" d="M 565.019531 300 C 565.019531 446.367188 446.367188 565.019531 300 565.019531 C 153.632812 565.019531 34.980469 446.367188 34.980469 300 C 34.980469 153.632812 153.632812 34.980469 300 34.980469 C 446.367188 34.980469 565.019531 153.632812 565.019531 300 Z M 565.019531 300 " transform="matrix(0.0666667,0,0,0.0666667,0,0)"/>
<path style="fill-rule:nonzero;fill:rgb(100%,40%,0%);fill-opacity:1;stroke-width:30;stroke-linecap:butt;stroke-linejoin:miter;stroke:rgb(0%,0%,0%);stroke-opacity:1;stroke-miterlimit:4;" d="M 415.019531 229.980469 C 415.019531 293.496094 363.515625 345 300 345 C 236.484375 345 184.980469 293.496094 184.980469 229.980469 C 184.980469 166.464844 236.484375 115.019531 300 115.019531 C 363.515625 115.019531 415.019531 166.464844 415.019531 229.980469 Z M 415.019531 229.980469 " transform="matrix(0.0666667,0,0,0.0666667,0,0)"/>
<path style="fill-rule:nonzero;fill:rgb(100%,40%,0%);fill-opacity:1;stroke-width:30;stroke-linecap:butt;stroke-linejoin:miter;stroke:rgb(0%,0%,0%);stroke-opacity:1;stroke-miterlimit:4;" d="M 106.816406 481.40625 C 135.878906 399.609375 213.222656 345 300 345 C 386.777344 345 464.121094 399.609375 493.183594 481.40625 " transform="matrix(0.0666667,0,0,0.0666667,0,0)"/>
</g>
</svg>
