<?xml version="1.0" encoding="UTF-8"?>
<svg xmlns="http://www.w3.org/2000/svg" xmlns:xlink="http://www.w3.org/1999/xlink" width="30px" height="30px" viewBox="0 0 30 30" version="1.1">
<g id="surface1">
<path style=" stroke:none;fill-rule:nonzero;fill:#ff6600;fill-opacity:1;" d="M 15 0.300781 C 6.882812 0.300781 0.300781 6.882812 0.300781 15 C 0.300781 23.117188 6.882812 29.699219 15 29.699219 C 23.117188 29.699219 29.699219 23.117188 29.699219 15 C 29.699219 6.882812 23.117188 0.300781 15 0.300781 Z M 15 27.402344 C 8.152344 27.402344 2.597656 21.847656 2.597656 15 C 2.597656 8.152344 8.152344 2.597656 15 2.597656 C 21.847656 2.597656 27.402344 8.152344 27.402344 15 C 27.402344 21.847656 21.847656 27.402344 15 27.402344 Z M 15 27.402344 "/>
<path style=" stroke:none;fill-rule:nonzero;fill:#ff6600;fill-opacity:1;" d="M 9.488281 17.757812 C 8.980469 17.757812 8.570312 18.167969 8.570312 18.675781 C 8.570312 19.183594 8.980469 19.59375 9.488281 19.59375 C 9.996094 19.59375 10.40625 19.183594 10.40625 18.675781 C 10.40625 18.167969 9.996094 17.757812 9.488281 17.757812 Z M 9.488281 17.757812 "/>
<path style=" stroke:none;fill-rule:nonzero;fill:#ff6600;fill-opacity:1;" d="M 9.488281 14.082031 C 8.980469 14.082031 8.570312 14.492188 8.570312 15 C 8.570312 15.507812 8.980469 15.917969 9.488281 15.917969 C 9.996094 15.917969 10.40625 15.507812 10.40625 15 C 10.40625 14.492188 9.996094 14.082031 9.488281 14.082031 Z M 9.488281 14.082031 "/>
<path style=" stroke:none;fill-rule:nonzero;fill:#ff6600;fill-opacity:1;" d="M 9.488281 10.40625 C 8.980469 10.40625 8.570312 10.816406 8.570312 11.324219 C 8.570312 11.832031 8.980469 12.242188 9.488281 12.242188 C 9.996094 12.242188 10.40625 11.832031 10.40625 11.324219 C 10.40625 10.816406 9.996094 10.40625 9.488281 10.40625 Z M 9.488281 10.40625 "/>
<path style=" stroke:none;fill-rule:nonzero;fill:#ff6600;fill-opacity:1;" d="M 21.433594 10.867188 C 21.433594 10.609375 21.226562 10.40625 20.972656 10.40625 L 12.703125 10.40625 C 12.445312 10.40625 12.242188 10.609375 12.242188 10.867188 L 12.242188 11.785156 C 12.242188 12.039062 12.445312 12.242188 12.703125 12.242188 L 20.96875 12.242188 C 21.226562 12.242188 21.429688 12.039062 21.429688 11.785156 L 21.429688 10.867188 Z M 21.433594 10.867188 "/>
<path style=" stroke:none;fill-rule:nonzero;fill:#ff6600;fill-opacity:1;" d="M 21.433594 14.539062 C 21.433594 14.285156 21.226562 14.082031 20.972656 14.082031 L 12.703125 14.082031 C 12.445312 14.082031 12.242188 14.285156 12.242188 14.539062 L 12.242188 15.460938 C 12.242188 15.714844 12.445312 15.917969 12.703125 15.917969 L 20.96875 15.917969 C 21.226562 15.917969 21.429688 15.714844 21.429688 15.460938 L 21.429688 14.539062 Z M 21.433594 14.539062 "/>
<path style=" stroke:none;fill-rule:nonzero;fill:#ff6600;fill-opacity:1;" d="M 21.433594 18.214844 C 21.433594 17.960938 21.226562 17.757812 20.972656 17.757812 L 12.703125 17.757812 C 12.445312 17.757812 12.242188 17.960938 12.242188 18.214844 L 12.242188 19.132812 C 12.242188 19.390625 12.445312 19.59375 12.703125 19.59375 L 20.96875 19.59375 C 21.226562 19.59375 21.429688 19.390625 21.429688 19.132812 L 21.429688 18.214844 Z M 21.433594 18.214844 "/>
</g>
</svg>
