<?xml version="1.0" encoding="UTF-8"?>
<svg xmlns="http://www.w3.org/2000/svg" xmlns:xlink="http://www.w3.org/1999/xlink" width="30px" height="30px" viewBox="0 0 30 30" version="1.1">
<g id="surface1">
<path style=" stroke:none;fill-rule:nonzero;fill:#ff6600;fill-opacity:1;" d="M 4.6875 10.3125 L 10.3125 10.3125 L 10.3125 4.6875 L 4.6875 4.6875 Z M 6.5625 6.5625 L 8.4375 6.5625 L 8.4375 8.4375 L 6.5625 8.4375 Z M 6.5625 6.5625 "/>
<path style=" stroke:none;fill-rule:nonzero;fill:#ff6600;fill-opacity:1;" d="M 12.1875 10.3125 L 17.8125 10.3125 L 17.8125 4.6875 L 12.1875 4.6875 Z M 14.0625 6.5625 L 15.9375 6.5625 L 15.9375 8.4375 L 14.0625 8.4375 Z M 14.0625 6.5625 "/>
<path style=" stroke:none;fill-rule:nonzero;fill:#ff6600;fill-opacity:1;" d="M 19.6875 4.6875 L 19.6875 10.3125 L 25.3125 10.3125 L 25.3125 4.6875 Z M 23.4375 8.4375 L 21.5625 8.4375 L 21.5625 6.5625 L 23.4375 6.5625 Z M 23.4375 8.4375 "/>
<path style=" stroke:none;fill-rule:nonzero;fill:#ff6600;fill-opacity:1;" d="M 4.6875 17.8125 L 10.3125 17.8125 L 10.3125 12.1875 L 4.6875 12.1875 Z M 6.5625 14.0625 L 8.4375 14.0625 L 8.4375 15.9375 L 6.5625 15.9375 Z M 6.5625 14.0625 "/>
<path style=" stroke:none;fill-rule:nonzero;fill:#ff6600;fill-opacity:1;" d="M 12.1875 17.8125 L 17.8125 17.8125 L 17.8125 12.1875 L 12.1875 12.1875 Z M 14.0625 14.0625 L 15.9375 14.0625 L 15.9375 15.9375 L 14.0625 15.9375 Z M 14.0625 14.0625 "/>
<path style=" stroke:none;fill-rule:nonzero;fill:#ff6600;fill-opacity:1;" d="M 19.6875 17.8125 L 25.3125 17.8125 L 25.3125 12.1875 L 19.6875 12.1875 Z M 21.5625 14.0625 L 23.4375 14.0625 L 23.4375 15.9375 L 21.5625 15.9375 Z M 21.5625 14.0625 "/>
<path style=" stroke:none;fill-rule:nonzero;fill:#ff6600;fill-opacity:1;" d="M 4.6875 25.3125 L 10.3125 25.3125 L 10.3125 19.6875 L 4.6875 19.6875 Z M 6.5625 21.5625 L 8.4375 21.5625 L 8.4375 23.4375 L 6.5625 23.4375 Z M 6.5625 21.5625 "/>
<path style=" stroke:none;fill-rule:nonzero;fill:#ff6600;fill-opacity:1;" d="M 12.1875 25.3125 L 17.8125 25.3125 L 17.8125 19.6875 L 12.1875 19.6875 Z M 14.0625 21.5625 L 15.9375 21.5625 L 15.9375 23.4375 L 14.0625 23.4375 Z M 14.0625 21.5625 "/>
<path style=" stroke:none;fill-rule:nonzero;fill:#ff6600;fill-opacity:1;" d="M 19.6875 25.3125 L 25.3125 25.3125 L 25.3125 19.6875 L 19.6875 19.6875 Z M 21.5625 21.5625 L 23.4375 21.5625 L 23.4375 23.4375 L 21.5625 23.4375 Z M 21.5625 21.5625 "/>
</g>
</svg>
